<svg width="25" height="29" viewBox="0 0 25 29" fill="none" xmlns="http://www.w3.org/2000/svg">
<path d="M20.0971 15.3554C20.1117 14.2487 20.4128 13.1635 20.9724 12.2009C21.532 11.2383 22.3319 10.4296 23.2977 9.84988C22.6842 8.99442 21.8748 8.29041 20.9338 7.79377C19.9929 7.29712 18.9462 7.02153 17.8771 6.98887C15.5964 6.75514 13.3854 8.32124 12.2232 8.32124C11.0385 8.32124 9.24911 7.01208 7.32224 7.05077C6.07589 7.09009 4.86122 7.44393 3.79659 8.07782C2.73196 8.71171 1.85367 9.60403 1.24729 10.6678C-1.37933 15.1077 0.579898 21.6329 3.09603 25.2218C4.35491 26.9792 5.82616 28.9422 7.7513 28.8726C9.63515 28.7963 10.3387 27.6998 12.6127 27.6998C14.8656 27.6998 15.5257 28.8726 17.4899 28.8284C19.5113 28.7963 20.7849 27.0632 21.9997 25.2892C22.9042 24.037 23.6002 22.653 24.0619 21.1886C22.8875 20.7036 21.8853 19.8919 21.1802 18.8546C20.4752 17.8173 20.0985 16.6003 20.0971 15.3554Z" fill="black"/>
<path d="M16.3871 4.62847C17.4893 3.3367 18.0323 1.67634 17.9009 0C16.217 0.172667 14.6615 0.958382 13.5445 2.20059C12.9983 2.80744 12.58 3.51344 12.3134 4.27822C12.0469 5.043 11.9374 5.85157 11.9911 6.6577C12.8334 6.66616 13.6666 6.48793 14.4281 6.13644C15.1895 5.78494 15.8594 5.26934 16.3871 4.62847Z" fill="black"/>
</svg>
