<svg width="95" height="76" viewBox="0 0 95 76" fill="none" xmlns="http://www.w3.org/2000/svg">
<path d="M21.6417 75.4787C17.2172 75.4787 13.3698 74.3229 10.0995 72.0114C6.82917 69.5072 4.32835 66.1362 2.59701 61.8983C0.865669 57.6605 0 52.8448 0 47.4511C0 40.9018 1.05804 34.6413 3.17412 28.6698C5.48257 22.5057 8.94525 16.8231 13.5622 11.6221C17.257 7.45979 21.8144 3.85265 27.2341 0.800691C29.7328 -0.60635 32.8308 -0.0989715 34.9308 1.8537C38.824 5.47368 37.4107 12.0502 32.9169 14.8905C31.8144 15.5873 30.7492 16.3279 29.7213 17.112C25.8739 20.1941 22.6998 23.6614 20.1989 27.514C18.0245 31.143 16.4474 34.8574 15.4678 38.6573C15.3618 39.0684 15.5619 39.4951 15.9415 39.6852C16.2517 39.8405 16.6207 39.8033 16.9127 39.6161C17.594 39.1792 18.4009 38.8051 19.3333 38.4939C20.4875 38.1086 22.2188 37.916 24.5273 37.916C26.8358 37.916 29.2404 38.5902 31.7412 39.9386C34.242 41.287 36.2619 43.3096 37.8009 46.0064C39.5322 48.5106 40.3979 51.8816 40.3979 56.1195C40.3979 59.5868 39.5322 62.7652 37.8009 65.6546C36.2619 68.5441 34.0497 70.9519 31.1641 72.8782C28.2785 74.6119 25.1044 75.4787 21.6417 75.4787ZM75.8903 75.4787C71.4658 75.4787 67.6184 74.3229 64.3481 72.0114C61.0778 69.5072 58.577 66.1362 56.8456 61.8983C55.1143 57.6605 54.2486 52.8448 54.2486 47.4511C54.2486 40.9018 55.3066 34.6413 57.4227 28.6698C59.7312 22.5057 63.1939 16.8231 67.8108 11.6221C71.5056 7.45979 76.063 3.85265 81.4828 0.80069C83.9814 -0.60635 87.0794 -0.098971 89.1794 1.8537C93.0726 5.47368 91.6593 12.0502 87.1655 14.8905C86.063 15.5873 84.9978 16.3279 83.9699 17.112C80.1225 20.1941 76.9484 23.6614 74.4476 27.514C72.2731 31.143 70.6961 34.8574 69.7164 38.6573C69.6104 39.0684 69.8105 39.4951 70.1902 39.6852C70.5003 39.8405 70.8693 39.8033 71.1613 39.6161C71.8427 39.1792 72.6495 38.8051 73.5819 38.4939C74.7361 38.1086 76.4675 37.916 78.7759 37.916C81.0844 37.916 83.489 38.5902 85.9898 39.9386C88.4906 41.287 90.5105 43.3096 92.0495 46.0064C93.7808 48.5106 94.6465 51.8816 94.6465 56.1195C94.6465 59.5868 93.7808 62.7652 92.0495 65.6546C90.5105 68.5441 88.2983 70.9519 85.4127 72.8782C82.5271 74.6119 79.353 75.4787 75.8903 75.4787Z" fill="#2A2E55"/>
</svg>
