<svg width="34" height="34" viewBox="0 0 34 34" fill="none" xmlns="http://www.w3.org/2000/svg">
<path d="M26.1676 17.9573C26.1737 19.3849 26.6073 20.7796 27.4149 21.9694C28.2225 23.1591 29.3688 24.0919 30.7125 24.6528C30.1684 26.3243 29.379 27.9098 28.3689 29.3597C26.9567 31.3748 25.4903 33.3833 23.184 33.4247C20.915 33.466 20.1868 32.1111 17.5961 32.1111C15.0036 32.1111 14.1925 33.3833 12.0505 33.4677C9.82209 33.5488 8.12708 31.2871 6.70301 29.2787C3.79051 25.169 1.56888 17.6695 4.5525 12.6069C5.25323 11.3822 6.26728 10.3562 7.49548 9.62915C8.72368 8.90213 10.124 8.499 11.5594 8.45919C13.7472 8.41783 15.8096 9.8969 17.1474 9.8969C18.4834 9.8969 20.9912 8.11837 23.6294 8.37978C24.8518 8.42129 26.0478 8.73934 27.1232 9.3089C28.1986 9.87846 29.1241 10.684 29.8269 11.6622C28.7221 12.3236 27.807 13.2481 27.1674 14.349C26.5277 15.45 26.1826 16.6914 26.1676 17.9573ZM21.9022 5.66153C23.1821 4.19788 23.8165 2.29846 23.6666 0.378906C21.7375 0.562139 19.9533 1.45952 18.6798 2.88704C18.0441 3.5785 17.5575 4.38794 17.2488 5.26709C16.9401 6.14624 16.8158 7.07712 16.8832 8.00422C17.8486 8.01743 18.8041 7.81293 19.6755 7.40662C20.5468 7.00032 21.3105 6.40314 21.9073 5.66153H21.9022Z" fill="white"/>
</svg>
