<svg width="34" height="34" viewBox="0 0 34 34" fill="none" xmlns="http://www.w3.org/2000/svg">
<rect width="34" height="34" rx="17" fill="#EBF3F6"/>
<path d="M30.8908 14.2261H29.7497V14.1673H16.9997V19.834H25.006C23.8379 23.1327 20.6993 25.5007 16.9997 25.5007C12.3056 25.5007 8.49967 21.6948 8.49967 17.0007C8.49967 12.3065 12.3056 8.50065 16.9997 8.50065C19.1665 8.50065 21.1378 9.31807 22.6387 10.6533L26.6458 6.64623C24.1156 4.28819 20.7312 2.83398 16.9997 2.83398C9.17613 2.83398 2.83301 9.17711 2.83301 17.0007C2.83301 24.8242 9.17613 31.1673 16.9997 31.1673C24.8232 31.1673 31.1663 24.8242 31.1663 17.0007C31.1663 16.0508 31.0686 15.1236 30.8908 14.2261Z" fill="#FFC107"/>
<path d="M4.46777 10.4068L9.12223 13.8202C10.3816 10.7022 13.4317 8.50065 17.001 8.50065C19.1678 8.50065 21.1391 9.31807 22.6401 10.6533L26.6471 6.64623C24.1169 4.28819 20.7325 2.83398 17.001 2.83398C11.5596 2.83398 6.84069 5.90603 4.46777 10.4068Z" fill="#FF3D00"/>
<path d="M17.0015 31.1662C20.6608 31.1662 23.9857 29.7658 26.4996 27.4885L22.115 23.7783C20.6449 24.8963 18.8485 25.501 17.0015 25.4995C13.3168 25.4995 10.1881 23.15 9.0094 19.8711L4.38965 23.4305C6.73423 28.0183 11.4956 31.1662 17.0015 31.1662Z" fill="#4CAF50"/>
<path d="M30.8911 14.2248H29.75V14.166H17V19.8327H25.0063C24.4476 21.4026 23.4411 22.7745 22.1113 23.7788L22.1135 23.7774L26.498 27.4876C26.1878 27.7696 31.1667 24.0827 31.1667 16.9993C31.1667 16.0495 31.0689 15.1223 30.8911 14.2248Z" fill="#1976D2"/>
</svg>
