<svg width="129" height="126" viewBox="0 0 129 126" fill="none" xmlns="http://www.w3.org/2000/svg">
<g clip-path="url(#clip0_142_11630)">
<path d="M29.9509 82.0545L9.83354 102.172C4.27717 107.728 4.27717 116.733 9.83354 122.289C15.3899 127.846 24.3945 127.846 29.9509 122.289L70.1856 82.0545C75.742 76.4981 75.742 67.4935 70.1856 61.9371L29.9509 21.7024C24.3945 16.1461 15.3899 16.1461 9.83354 21.7024C4.27717 27.2588 4.27717 36.2634 9.83354 41.8249L29.9509 61.9371C35.5073 67.4935 35.5073 76.4981 29.9509 82.0545Z" fill="white"/>
<path d="M9.23551 75.816L1.58134 83.465C-0.526786 85.5783 -0.526786 89.0008 1.58134 91.114C3.69461 93.2222 7.12224 93.2222 9.23551 91.114L24.5233 75.816C26.6365 73.7079 26.6365 70.2802 24.5233 68.1721L9.23551 52.8741C7.12224 50.7659 3.69461 50.7659 1.58134 52.8741C-0.526786 54.9873 -0.526786 58.4098 1.58134 60.5231L9.23551 68.1721C11.3436 70.2802 11.3436 73.7079 9.23551 75.816Z" fill="white"/>
<path d="M5.41094 92.6913C5.03983 92.6913 4.66357 92.6552 4.29761 92.5779C5.29755 92.3717 6.24079 91.8872 7.01909 91.1141L22.312 75.816C24.4201 73.7079 24.4201 70.2803 22.312 68.1721L7.01909 52.8741C6.24079 52.1061 5.29755 51.6164 4.29761 51.4103C4.66357 51.3381 5.03983 51.2969 5.41094 51.2969C6.7923 51.2969 8.17882 51.8226 9.23546 52.8741L24.5232 68.1721C25.5798 69.2236 26.1107 70.6101 26.1107 71.9915C26.1107 73.378 25.5798 74.7594 24.5232 75.816L9.23546 91.1141C8.17882 92.1656 6.7923 92.6913 5.41094 92.6913Z" fill="#C7C7C7"/>
<path d="M63.294 88.9445L43.2489 68.9045C37.6976 63.3481 37.6976 54.3383 43.2489 48.782L50.1402 41.8906L70.1854 61.9358C72.9636 64.714 74.3552 68.353 74.3552 71.9919C74.3552 75.636 72.9636 79.275 70.1854 82.0532L63.294 88.9445Z" fill="#C7C7C7"/>
<path d="M84.3981 44.402L104.515 24.2795C110.072 18.7283 110.072 9.71849 104.515 4.16728C98.9591 -1.38909 89.9545 -1.38909 84.3981 4.16728L44.1634 44.402C38.6122 49.9532 38.6122 58.963 44.1634 64.5142L84.3981 104.749C89.9545 110.305 98.9591 110.305 104.515 104.749C110.072 99.1976 110.072 90.1879 104.515 84.6367L84.3981 64.5142C78.8469 58.963 78.8469 49.9532 84.3981 44.402Z" fill="white"/>
<path d="M108.59 50.6318L116.234 42.9879C118.347 40.8746 118.347 37.4521 116.234 35.3389C114.126 33.2256 110.704 33.2256 108.59 35.3389L93.2974 50.6318C91.1841 52.745 91.1841 56.1675 93.2974 58.2808L108.59 73.5737C110.704 75.687 114.126 75.687 116.234 73.5737C118.347 71.4656 118.347 68.0379 116.234 65.9298L108.59 58.2808C106.477 56.1675 106.477 52.745 108.59 50.6318Z" fill="white"/>
</g>
<defs>
<clipPath id="clip0_142_11630">
<rect width="129" height="126" fill="white"/>
</clipPath>
</defs>
</svg>
