<svg width="140" height="43" viewBox="0 0 140 43" fill="none" xmlns="http://www.w3.org/2000/svg">
<path d="M9.95399 27.2704L3.2681 33.9562C1.42147 35.8029 1.42147 38.7955 3.2681 40.6421C5.11473 42.4888 8.10736 42.4888 9.95399 40.6421L23.3258 27.2704C25.1724 25.4237 25.1724 22.4311 23.3258 20.5845L9.95399 7.21271C8.10736 5.36608 5.11473 5.36608 3.2681 7.21271C1.42147 9.05933 1.42147 12.052 3.2681 13.9003L9.95399 20.5845C11.8006 22.4311 11.8006 25.4237 9.95399 27.2704Z" fill="#2A2E55"/>
<path d="M3.06929 25.1975L0.525467 27.7397C-0.175156 28.442 -0.175156 29.5794 0.525467 30.2818C1.2278 30.9824 2.36696 30.9824 3.06929 30.2818L8.15009 25.1975C8.85243 24.4969 8.85243 23.3578 8.15009 22.6571L3.06929 17.5729C2.36696 16.8723 1.2278 16.8723 0.525467 17.5729C-0.175156 18.2753 -0.175156 19.4127 0.525467 20.115L3.06929 22.6571C3.76992 23.3578 3.76992 24.4969 3.06929 25.1975Z" fill="#2A2E55"/>
<path d="M1.7981 30.806C1.67477 30.806 1.54972 30.794 1.42809 30.7683C1.76042 30.6998 2.0739 30.5388 2.33256 30.2818L7.41507 25.1976C8.1157 24.497 8.1157 23.3578 7.41507 22.6572L2.33256 17.573C2.0739 17.3177 1.76042 17.155 1.42809 17.0865C1.54972 17.0625 1.67477 17.0488 1.7981 17.0488C2.25719 17.0488 2.71799 17.2235 3.06916 17.573L8.14996 22.6572C8.50112 23.0066 8.67756 23.4674 8.67756 23.9265C8.67756 24.3873 8.50112 24.8464 8.14996 25.1976L3.06916 30.2818C2.71799 30.6313 2.25719 30.806 1.7981 30.806Z" fill="#C7C7C7"/>
<path d="M21.0355 29.5606L14.3736 22.9004C12.5286 21.0538 12.5286 18.0594 14.3736 16.2128L16.6639 13.9225L23.3258 20.5844C24.2491 21.5077 24.7116 22.7171 24.7116 23.9265C24.7116 25.1376 24.2491 26.347 23.3258 27.2703L21.0355 29.5606Z" fill="#C7C7C7"/>
<path d="M29.203 14.7567L35.8889 8.06914C37.7355 6.22422 37.7355 3.22988 35.8889 1.38497C34.0423 -0.461656 31.0496 -0.461656 29.203 1.38497L15.8312 14.7567C13.9863 16.6016 13.9863 19.596 15.8312 21.4409L29.203 34.8127C31.0496 36.6593 34.0423 36.6593 35.8889 34.8127C37.7355 32.9678 37.7355 29.9734 35.8889 28.1285L29.203 21.4409C27.3581 19.596 27.3581 16.6016 29.203 14.7567Z" fill="#2A2E55"/>
<path d="M36.0893 16.8278L38.6297 14.2874C39.332 13.585 39.332 12.4476 38.6297 11.7453C37.929 11.0429 36.7916 11.0429 36.0893 11.7453L31.0068 16.8278C30.3044 17.5301 30.3044 18.6675 31.0068 19.3699L36.0893 24.4524C36.7916 25.1547 37.929 25.1547 38.6297 24.4524C39.332 23.7518 39.332 22.6126 38.6297 21.912L36.0893 19.3699C35.3869 18.6675 35.3869 17.5301 36.0893 16.8278Z" fill="#2A2E55"/>
<g clip-path="url(#clip0_4_49)">
<path d="M52.5935 24.0153H60.039V27.7765H48.5334V9.11433H59.7449V12.8468H52.5935V16.5274H59.0528V20.1792H52.5935V24.0153Z" fill="#2A2E55"/>
<path d="M73.4408 13.3537H76.3533V27.7477H73.2851L72.9621 26.469C72.3393 27.0033 71.6313 27.4223 70.8398 27.7247C70.0468 28.0242 69.1976 28.174 68.2907 28.174C66.8489 28.174 65.5584 27.8413 64.4209 27.1775C63.2818 26.5094 62.3821 25.6036 61.7218 24.4588C61.0643 23.3112 60.7356 22.0094 60.7356 20.5536C60.7356 19.1136 61.0643 17.8205 61.7218 16.6714C62.3821 15.5237 63.2818 14.6208 64.4209 13.9642C65.5584 13.3076 66.8489 12.9793 68.2907 12.9793C69.2163 12.9793 70.08 13.1348 70.8802 13.4458C71.6789 13.7568 72.3912 14.1874 73.014 14.736L73.4408 13.3537ZM68.6136 24.4991C69.3591 24.4991 70.0295 24.3307 70.6264 23.9923C71.2219 23.6553 71.689 23.1888 72.0278 22.5926C72.3652 21.9979 72.5354 21.3182 72.5354 20.5536C72.5354 19.8048 72.3652 19.1338 72.0278 18.5376C71.689 17.9429 71.2219 17.472 70.6264 17.1264C70.0295 16.7779 69.3591 16.6023 68.6136 16.6023C67.848 16.6023 67.1718 16.7779 66.5836 17.1264C65.9953 17.472 65.5311 17.9429 65.1937 18.5376C64.8548 19.1338 64.6862 19.8048 64.6862 20.5536C64.6862 21.3182 64.8548 21.9936 65.1937 22.5811C65.5311 23.1657 65.9953 23.6323 66.5836 23.9807C67.1718 24.3263 67.848 24.4991 68.6136 24.4991Z" fill="#2A2E55"/>
<path d="M83.6962 28.174C82.4851 28.174 81.4254 27.9609 80.5185 27.5346C79.6102 27.1084 78.9037 26.5094 78.3962 25.7375C77.8886 24.9657 77.6349 24.0643 77.6349 23.0304H81.4239C81.4427 23.6726 81.6734 24.1521 82.116 24.4703C82.5615 24.79 83.1325 24.9484 83.8289 24.9484C84.3782 24.9484 84.8569 24.8303 85.2649 24.5913C85.6758 24.3494 85.882 23.9894 85.882 23.5084C85.882 23.0131 85.611 22.6646 85.0688 22.4601C84.5267 22.2528 83.8721 22.0886 83.108 21.9648C82.5385 21.8769 81.9459 21.7516 81.3317 21.5904C80.716 21.4291 80.1508 21.1987 79.6361 20.8992C79.1199 20.5968 78.6975 20.1777 78.3673 19.6435C78.04 19.1107 77.8771 18.4166 77.8771 17.5642C77.8771 16.6584 78.1208 15.8592 78.6095 15.168C79.0969 14.474 79.7716 13.9354 80.6338 13.5552C81.4989 13.1722 82.5197 12.9793 83.6962 12.9793C84.8526 12.9793 85.8618 13.1794 86.724 13.5783C87.5891 13.9786 88.261 14.5388 88.7426 15.2602C89.2227 15.9787 89.4635 16.8183 89.4635 17.7773H85.7494C85.7494 17.2099 85.5562 16.7837 85.1727 16.4986C84.792 16.2149 84.2629 16.0723 83.5867 16.0723C82.9825 16.0723 82.5111 16.2019 82.1737 16.4583C81.8349 16.716 81.6662 17.0501 81.6662 17.4605C81.6662 17.9414 81.9329 18.2698 82.4678 18.4454C83.0013 18.6226 83.6415 18.7738 84.3883 18.9005C84.9766 19.0042 85.5821 19.1338 86.205 19.2864C86.8278 19.4362 87.406 19.6637 87.9409 19.9661C88.4744 20.2656 88.9055 20.6832 89.2328 21.216C89.563 21.7502 89.7288 22.4529 89.7288 23.3241C89.7288 24.3033 89.4779 25.1587 88.979 25.8873C88.483 26.613 87.7809 27.1761 86.874 27.5749C85.9656 27.9738 84.9074 28.174 83.6962 28.174Z" fill="#2A2E55"/>
<path d="M101.023 13.3767H105.187L98.8834 27.5922C98.3139 28.8896 97.7357 29.9322 97.1474 30.7199C96.5621 31.5104 95.896 32.085 95.1462 32.4421C94.3994 32.7992 93.4824 32.9778 92.3953 32.9778H90.7977V29.4584H92.1588C92.7817 29.4584 93.2748 29.3864 93.641 29.2453C94.0057 29.1028 94.3172 28.8392 94.5753 28.4562C94.8319 28.0761 95.1131 27.5217 95.4173 26.7916L95.4692 26.6821L89.3559 13.3767H93.6006L97.4416 22.2297L101.023 13.3767Z" fill="#2A2E55"/>
<path d="M114.073 18.0192H124.033C124.013 19.4937 123.774 20.8502 123.312 22.0857C122.851 23.3183 122.197 24.3897 121.352 25.2998C120.505 26.207 119.5 26.9125 118.335 27.4194C117.17 27.922 115.884 28.174 114.477 28.174C113.104 28.174 111.83 27.9335 110.653 27.454C109.48 26.9745 108.453 26.3006 107.574 25.4322C106.693 24.5611 106.012 23.53 105.532 22.3392C105.051 21.1497 104.811 19.8595 104.811 18.4685C104.811 17.0674 105.045 15.7757 105.515 14.592C105.988 13.4098 106.657 12.3788 107.522 11.4989C108.387 10.6205 109.405 9.93656 110.578 9.4484C111.755 8.95737 113.027 8.71113 114.396 8.71113C115.945 8.71113 117.378 9.01497 118.693 9.6212C120.011 10.2246 121.115 11.0597 122.003 12.1268C122.894 13.1952 123.483 14.4293 123.768 15.8304H119.604C119.212 14.8167 118.552 14.0189 117.626 13.4343C116.699 12.8468 115.649 12.553 114.477 12.553C113.373 12.553 112.402 12.8064 111.565 13.3133C110.73 13.8202 110.077 14.5143 109.604 15.3927C109.131 16.2725 108.894 17.2978 108.894 18.4685C108.894 19.6248 109.125 20.6443 109.586 21.527C110.051 22.4068 110.701 23.0966 111.536 23.5948C112.373 24.0902 113.354 24.3379 114.477 24.3379C115.688 24.3379 116.774 24.0441 117.736 23.4566C118.696 22.8691 119.346 22.0958 119.685 21.1353H114.073V18.0192Z" fill="#2A2E55"/>
<path d="M132.232 28.174C130.735 28.174 129.4 27.8413 128.223 27.1775C127.05 26.5094 126.126 25.6036 125.449 24.4588C124.772 23.3112 124.434 22.0166 124.434 20.5766C124.434 19.1222 124.772 17.8205 125.449 16.6714C126.126 15.5237 127.05 14.6208 128.223 13.9642C129.4 13.3076 130.735 12.9793 132.232 12.9793C133.708 12.9793 135.032 13.3076 136.205 13.9642C137.382 14.6208 138.307 15.5237 138.985 16.6714C139.661 17.8205 140 19.1222 140 20.5766C140 22.0166 139.661 23.3112 138.985 24.4588C138.307 25.6036 137.382 26.5094 136.205 27.1775C135.032 27.8413 133.708 28.174 132.232 28.174ZM132.232 24.5222C133.35 24.5222 134.265 24.1593 134.977 23.4335C135.692 22.7049 136.049 21.7516 136.049 20.5766C136.049 19.4059 135.692 18.4555 134.977 17.7254C134.265 16.9968 133.35 16.6311 132.232 16.6311C131.09 16.6311 130.163 16.9968 129.452 17.7254C128.74 18.4555 128.385 19.4059 128.385 20.5766C128.385 21.7516 128.74 22.7049 129.452 23.4335C130.163 24.1593 131.09 24.5222 132.232 24.5222Z" fill="#2A2E55"/>
</g>
<defs>
<clipPath id="clip0_4_49">
<rect width="91.4667" height="24.2666" fill="white" transform="translate(48.5334 8.71112)"/>
</clipPath>
</defs>
</svg>
