<svg width="26" height="29" viewBox="0 0 26 29" fill="none" xmlns="http://www.w3.org/2000/svg">
<path d="M11.7961 13.7895L0.107798 26.4752C0.108895 26.4774 0.108895 26.4808 0.109993 26.4831C0.468976 27.8605 1.69852 28.8743 3.1586 28.8743C3.74263 28.8743 4.29044 28.7126 4.7603 28.4297L4.79763 28.4073L17.9537 20.6442L11.7961 13.7895Z" fill="#EA4335"/>
<path d="M23.6205 11.6295L23.6095 11.6216L17.9295 8.25482L11.5304 14.0779L17.9525 20.6431L23.6018 17.31C24.5921 16.7621 25.265 15.6945 25.265 14.4641C25.265 13.2404 24.6019 12.1784 23.6205 11.6295Z" fill="#FBBC04"/>
<path d="M0.107585 2.39825C0.0373254 2.66319 0 2.9416 0 3.22899V25.6457C0 25.9331 0.0373254 26.2115 0.108683 26.4753L12.1977 14.114L0.107585 2.39825Z" fill="#4285F4"/>
<path d="M11.8825 14.437L17.9314 8.25243L4.79064 0.461362C4.31309 0.168355 3.7554 -3.91006e-05 3.1593 -3.91006e-05C1.69921 -3.91006e-05 0.467476 1.01594 0.108493 2.39454C0.108493 2.39566 0.107396 2.39678 0.107396 2.3979L11.8825 14.437Z" fill="#34A853"/>
</svg>
